<svg width="1080" height="1080" viewBox="0 0 1080 1080" fill="none" xmlns="http://www.w3.org/2000/svg">
<rect width="1080" height="1080" fill="white"/>
<circle cx="822" cy="603" r="220" fill="#17BEBB" fill-opacity="0.7"/>
<circle cx="615" cy="383" r="125" fill="#D62246" fill-opacity="0.8"/>
<path d="M114.858 559.378C119.755 582.463 126.851 594.006 136.145 594.006C139.742 594.006 143.19 592.707 146.488 590.108C149.786 587.41 152.834 584.162 155.632 580.365C158.53 576.467 161.078 572.37 163.277 568.073C165.475 563.776 167.274 560.028 168.673 556.83C169.673 554.432 171.422 553.232 173.92 553.232C175.519 553.232 176.868 553.832 177.967 555.031C179.067 556.23 179.616 557.53 179.616 558.929C179.616 559.728 179.466 560.428 179.167 561.027C178.467 562.726 177.418 565.025 176.019 567.923C174.719 570.721 173.07 573.769 171.072 577.067C169.173 580.265 167.024 583.563 164.626 586.96C162.228 590.358 159.579 593.406 156.681 596.104C153.783 598.803 150.685 601.051 147.387 602.85C144.189 604.549 140.792 605.398 137.194 605.398C130.498 605.398 124.752 603.1 119.955 598.503C115.158 593.806 111.011 586.111 107.513 575.418C102.716 585.611 97.8695 593.007 92.9727 597.604C88.0758 602.201 82.7793 604.499 77.083 604.499C74.085 604.499 71.1868 603.999 68.3887 603C65.5905 602.101 63.1421 600.552 61.0435 598.353C58.9448 596.154 57.2459 593.356 55.9468 589.958C54.6476 586.461 53.998 582.214 53.998 577.217C53.998 570.321 55.1973 563.975 57.5957 558.179C59.9941 552.383 63.0921 547.436 66.8896 543.339C70.6872 539.142 74.8844 535.894 79.4814 533.595C84.1784 531.297 88.8254 530.147 93.4224 530.147C94.9214 530.147 96.2205 530.697 97.3198 531.796C98.4191 532.796 98.9688 534.095 98.9688 535.694C98.9688 537.093 98.519 538.342 97.6196 539.441C96.7202 540.541 95.521 541.19 94.022 541.39C91.0239 541.79 87.826 542.739 84.4282 544.238C81.0304 545.737 77.8825 547.936 74.9844 550.834C72.1862 553.632 69.8377 557.23 67.939 561.627C66.1401 566.024 65.2407 571.271 65.2407 577.367C65.2407 582.363 66.2401 586.261 68.2388 589.059C70.3374 591.857 73.3354 593.256 77.2329 593.256C78.8319 593.256 80.5308 592.857 82.3296 592.057C84.1284 591.158 86.0272 589.459 88.0259 586.96C90.1245 584.462 92.373 580.914 94.7715 576.317C97.2699 571.72 100.018 565.674 103.016 558.179C101.317 549.385 99.7682 539.242 98.3691 527.749C96.9701 516.257 96.2705 503.415 96.2705 489.224C96.2705 483.028 96.4704 476.582 96.8701 469.887C97.2699 463.091 97.9194 456.495 98.8188 450.1C99.7183 443.604 100.917 437.458 102.417 431.662C103.916 425.865 105.714 420.769 107.813 416.372C110.012 411.974 112.56 408.527 115.458 406.028C118.356 403.43 121.654 402.131 125.352 402.131C128.649 402.131 131.448 403.03 133.746 404.829C136.045 406.628 137.893 409.126 139.292 412.324C140.792 415.522 141.891 419.37 142.59 423.867C143.29 428.364 143.64 433.311 143.64 438.707C143.64 450.299 142.64 461.892 140.642 473.484C138.643 485.077 136.145 496.17 133.146 506.763C130.248 517.356 127.15 527.149 123.853 536.144C120.555 545.138 117.557 552.883 114.858 559.378ZM132.397 438.557C132.397 436.059 132.297 433.361 132.097 430.462C131.997 427.564 131.647 424.866 131.048 422.368C130.548 419.769 129.849 417.621 128.949 415.922C128.05 414.223 126.851 413.374 125.352 413.374C122.853 413.374 120.505 415.572 118.306 419.969C116.208 424.366 114.359 430.163 112.76 437.358C111.161 444.453 109.862 452.548 108.862 461.642C107.963 470.636 107.513 479.73 107.513 488.924C107.513 497.719 107.863 506.513 108.562 515.307C109.262 524.101 110.062 531.946 110.961 538.842C113.859 531.147 116.607 523.252 119.206 515.157C121.804 506.963 124.052 498.618 125.951 490.124C127.95 481.629 129.499 473.085 130.598 464.49C131.797 455.796 132.397 447.152 132.397 438.557ZM186.812 586.511C188.91 589.409 191.608 591.757 194.906 593.556C198.204 595.255 202.251 596.104 207.048 596.104C211.945 596.104 216.392 594.955 220.39 592.657C224.387 590.258 228.035 587.16 231.333 583.363C234.63 579.565 237.578 575.318 240.177 570.621C242.775 565.924 245.124 561.227 247.222 556.53C247.722 555.431 248.421 554.632 249.321 554.132C250.22 553.532 251.22 553.232 252.319 553.232C254.018 553.232 255.367 553.832 256.366 555.031C257.465 556.23 258.015 557.53 258.015 558.929C258.015 559.428 257.965 559.878 257.865 560.278C257.765 560.578 257.615 560.927 257.416 561.327C250.52 576.517 242.975 587.96 234.78 595.655C226.686 603.35 217.492 607.297 207.198 607.497C200.603 607.497 194.906 606.198 190.109 603.6C185.312 601.101 181.365 597.853 178.267 593.856C175.169 589.759 172.871 585.162 171.372 580.065C169.873 574.968 169.123 569.872 169.123 564.775C169.123 559.678 169.723 554.981 170.922 550.684C172.221 546.387 174.02 542.639 176.318 539.441C178.717 536.243 181.515 533.745 184.713 531.946C188.011 530.147 191.608 529.248 195.506 529.248C197.804 529.248 200.053 529.748 202.251 530.747C204.55 531.646 206.599 532.996 208.397 534.794C210.196 536.493 211.645 538.592 212.745 541.09C213.844 543.589 214.394 546.437 214.394 549.635C214.394 553.732 213.694 557.58 212.295 561.177C210.896 564.775 208.947 568.123 206.449 571.221C204.05 574.319 201.152 577.167 197.754 579.765C194.357 582.363 190.709 584.612 186.812 586.511ZM182.314 576.767C185.412 575.468 188.211 573.819 190.709 571.82C193.307 569.822 195.506 567.623 197.305 565.225C199.104 562.826 200.503 560.328 201.502 557.729C202.501 555.031 203.001 552.333 203.001 549.635C203.001 546.637 202.251 544.388 200.752 542.889C199.253 541.29 197.505 540.491 195.506 540.491C192.808 540.491 190.509 541.24 188.61 542.739C186.712 544.238 185.163 546.187 183.963 548.585C182.764 550.984 181.865 553.682 181.265 556.68C180.765 559.578 180.516 562.476 180.516 565.375C180.516 567.173 180.666 569.072 180.965 571.071C181.365 573.069 181.815 574.968 182.314 576.767ZM264.011 547.536C263.412 549.135 262.662 550.934 261.763 552.933C260.963 554.931 260.014 557.03 258.915 559.229C258.015 560.927 257.066 562.277 256.066 563.276C255.167 564.175 253.968 564.625 252.469 564.625C250.77 564.625 249.421 564.125 248.421 563.126C247.422 562.027 246.922 560.778 246.922 559.378C246.922 558.879 246.972 558.479 247.072 558.179C247.172 557.779 247.422 557.18 247.822 556.38C250.42 551.384 252.319 547.036 253.518 543.339C254.817 539.541 255.867 535.594 256.666 531.497C255.966 529.198 255.467 527.249 255.167 525.65C254.867 524.051 254.717 522.403 254.717 520.704C254.717 517.406 255.417 514.757 256.816 512.759C258.215 510.66 260.164 509.611 262.662 509.611C264.961 509.611 266.759 510.61 268.059 512.609C269.458 514.608 270.157 517.056 270.157 519.954C270.157 521.553 270.007 523.152 269.708 524.751C269.408 526.35 269.008 528.349 268.508 530.747C270.807 536.443 273.105 541.49 275.404 545.887C277.702 550.284 279.751 554.332 281.55 558.029C283.349 561.627 284.798 565.025 285.897 568.223C287.096 571.421 287.696 574.618 287.696 577.816C287.696 582.014 286.846 586.011 285.147 589.809C283.449 593.606 280.65 596.804 276.753 599.402C277.253 599.502 277.752 599.552 278.252 599.552C278.752 599.552 279.251 599.552 279.751 599.552C285.447 599.552 290.694 598.253 295.491 595.655C300.288 593.056 304.585 589.709 308.382 585.611C312.28 581.414 315.728 576.817 318.726 571.82C321.724 566.724 324.322 561.677 326.521 556.68C327.52 554.382 328.919 553.232 330.718 553.232C332.417 553.232 333.716 553.832 334.615 555.031C335.615 556.23 336.114 557.53 336.114 558.929C336.114 559.728 335.964 560.478 335.665 561.177C334.565 563.875 333.116 566.973 331.317 570.471C329.618 573.869 327.52 577.417 325.021 581.114C322.623 584.712 319.825 588.26 316.627 591.757C313.429 595.255 309.831 598.403 305.834 601.201C301.937 603.899 297.639 606.048 292.942 607.647C288.245 609.346 283.099 610.195 277.502 610.195C270.807 610.195 264.561 608.996 258.765 606.598C253.068 604.299 248.421 600.452 244.824 595.055C244.224 594.156 243.924 593.206 243.924 592.207C243.924 590.708 244.474 589.409 245.573 588.31C246.772 587.11 248.122 586.511 249.621 586.511C251.22 586.511 252.569 587.06 253.668 588.16C253.768 588.36 254.118 588.709 254.717 589.209C255.317 589.609 256.016 590.108 256.816 590.708C257.715 591.208 258.715 591.657 259.814 592.057C261.013 592.457 262.212 592.657 263.412 592.657C265.81 592.657 267.809 592.157 269.408 591.158C271.107 590.158 272.456 588.959 273.455 587.56C274.454 586.061 275.154 584.512 275.554 582.913C276.053 581.214 276.303 579.765 276.303 578.566C276.303 576.068 275.903 573.569 275.104 571.071C274.305 568.572 273.255 566.074 271.956 563.576C270.757 561.077 269.408 558.529 267.909 555.931C266.51 553.232 265.21 550.434 264.011 547.536ZM349.755 485.327C349.755 489.124 348.406 492.372 345.708 495.07C343.11 497.669 339.912 498.968 336.114 498.968C332.317 498.968 329.069 497.669 326.371 495.07C323.772 492.372 322.473 489.124 322.473 485.327C322.473 483.428 322.823 481.679 323.522 480.08C324.222 478.381 325.171 476.932 326.371 475.733C327.67 474.434 329.119 473.434 330.718 472.735C332.417 472.035 334.215 471.686 336.114 471.686C338.013 471.686 339.762 472.035 341.361 472.735C343.06 473.434 344.509 474.434 345.708 475.733C347.007 476.932 348.007 478.381 348.706 480.08C349.406 481.679 349.755 483.428 349.755 485.327ZM325.471 573.169C325.471 558.779 326.371 544.438 328.169 530.147C328.369 528.748 328.969 527.549 329.968 526.55C331.068 525.451 332.467 524.901 334.166 524.901C335.665 524.901 336.914 525.5 337.913 526.7C338.912 527.799 339.412 529.098 339.412 530.597C339.412 531.197 339.262 532.996 338.962 535.994C338.763 538.992 338.463 542.589 338.063 546.787C337.763 550.884 337.463 555.281 337.164 559.978C336.964 564.575 336.864 568.822 336.864 572.72C336.864 578.016 337.363 582.313 338.363 585.611C339.462 588.809 340.811 591.308 342.41 593.106C344.109 594.905 345.858 596.104 347.657 596.704C349.556 597.304 351.354 597.604 353.053 597.604C355.851 597.604 358.75 596.604 361.748 594.605C364.746 592.607 367.794 589.809 370.892 586.211C374.09 582.613 377.287 578.316 380.485 573.319C383.683 568.223 386.831 562.576 389.929 556.38C390.429 555.381 391.128 554.632 392.028 554.132C392.927 553.532 393.927 553.232 395.026 553.232C396.625 553.232 397.924 553.832 398.923 555.031C400.023 556.23 400.572 557.53 400.572 558.929C400.572 559.928 400.372 560.778 399.973 561.477C398.773 563.776 397.274 566.574 395.476 569.872C393.677 573.169 391.628 576.567 389.33 580.065C387.031 583.563 384.483 587.06 381.685 590.558C378.986 593.956 376.088 597.054 372.99 599.852C369.892 602.55 366.644 604.749 363.247 606.448C359.849 608.147 356.401 608.996 352.903 608.996C348.406 608.996 344.459 608.047 341.061 606.148C337.663 604.249 334.765 601.701 332.367 598.503C330.068 595.305 328.319 591.557 327.12 587.26C326.021 582.863 325.471 578.166 325.471 573.169ZM341.361 485.327C341.361 483.928 340.811 482.728 339.712 481.729C338.713 480.63 337.513 480.08 336.114 480.08C334.715 480.08 333.516 480.63 332.517 481.729C331.517 482.728 331.018 483.928 331.018 485.327C331.018 486.726 331.517 487.925 332.517 488.924C333.516 489.924 334.715 490.423 336.114 490.423C337.513 490.423 338.713 489.924 339.712 488.924C340.811 487.925 341.361 486.726 341.361 485.327ZM444.044 617.69C462.832 593.206 475.873 572.87 483.168 556.68C483.668 555.581 484.318 554.781 485.117 554.282C486.017 553.682 487.016 553.382 488.115 553.382C489.814 553.382 491.213 553.982 492.312 555.181C493.412 556.28 493.961 557.58 493.961 559.079C493.961 559.778 493.812 560.478 493.512 561.177C489.115 571.171 482.869 582.313 474.774 594.605C466.679 606.897 456.436 620.788 444.044 636.278C444.044 642.574 444.094 648.87 444.194 655.166C444.294 661.462 444.344 668.357 444.344 675.853C444.344 683.348 444.144 690.743 443.744 698.038C443.444 705.433 442.845 712.429 441.945 719.024C441.046 725.72 439.797 731.866 438.198 737.462C436.699 743.159 434.7 748.056 432.202 752.153C429.803 756.35 426.855 759.598 423.357 761.896C419.96 764.295 415.912 765.494 411.215 765.494C404.52 765.494 399.373 762.946 395.775 757.849C392.178 752.752 390.379 745.507 390.379 736.113C390.379 731.117 390.829 725.67 391.728 719.774C392.727 713.978 394.126 707.982 395.925 701.786C397.724 695.59 399.873 689.294 402.371 682.898C404.969 676.602 407.818 670.456 410.916 664.46C414.014 658.464 417.361 652.718 420.959 647.221C424.657 641.725 428.554 636.728 432.651 632.231C432.751 625.236 432.801 618.29 432.801 611.395C432.901 604.499 433.051 598.153 433.251 592.357C430.253 596.154 426.655 599.153 422.458 601.351C418.361 603.55 414.263 604.649 410.166 604.649C406.668 604.649 403.47 603.999 400.572 602.7C397.774 601.301 395.376 599.402 393.377 597.004C391.378 594.506 389.829 591.607 388.73 588.31C387.631 585.012 387.081 581.414 387.081 577.517C387.081 569.722 388.38 562.876 390.979 556.98C393.677 550.984 397.075 545.987 401.172 541.99C405.269 537.992 409.766 534.994 414.663 532.996C419.66 530.997 424.457 529.998 429.054 529.998C432.152 529.998 435 530.397 437.598 531.197C440.196 531.996 442.395 532.896 444.194 533.895C446.093 534.894 447.542 535.844 448.541 536.743C449.54 537.643 450.09 538.142 450.19 538.242C451.289 539.441 451.839 540.791 451.839 542.29C451.839 543.789 451.289 545.138 450.19 546.337C449.091 547.436 447.792 547.986 446.292 547.986C444.893 547.986 443.544 547.436 442.245 546.337C441.845 546.037 441.296 545.637 440.596 545.138C439.997 544.538 439.147 543.938 438.048 543.339C437.049 542.739 435.799 542.24 434.3 541.84C432.901 541.44 431.202 541.24 429.204 541.24C426.206 541.24 422.908 541.94 419.31 543.339C415.712 544.638 412.365 546.737 409.267 549.635C406.169 552.533 403.57 556.28 401.472 560.877C399.373 565.375 398.324 570.821 398.324 577.217C398.324 582.014 399.373 585.911 401.472 588.909C403.57 591.807 406.818 593.256 411.215 593.256C413.314 593.256 415.513 592.657 417.811 591.458C420.209 590.258 422.508 588.41 424.707 585.911C426.905 583.413 428.804 580.265 430.403 576.467C432.102 572.67 433.301 568.173 434 562.976C434.2 561.577 434.85 560.428 435.949 559.528C437.049 558.529 438.348 558.029 439.847 558.029C441.546 558.029 442.845 558.629 443.744 559.828C444.743 561.027 445.243 562.376 445.243 563.875C445.243 563.975 445.193 565.524 445.093 568.522C444.993 571.421 444.893 575.318 444.793 580.215C444.694 585.112 444.544 590.808 444.344 597.304C444.244 603.7 444.144 610.495 444.044 617.69ZM432.651 650.519C427.954 657.015 423.707 664.06 419.91 671.655C416.112 679.35 412.864 687.095 410.166 694.89C407.468 702.685 405.369 710.23 403.87 717.525C402.471 724.921 401.771 731.516 401.771 737.312C401.771 741.01 402.071 743.958 402.671 746.157C403.37 748.355 404.17 750.054 405.069 751.253C406.069 752.453 407.118 753.252 408.217 753.652C409.417 754.052 410.516 754.251 411.515 754.251C414.613 754.251 417.311 753.002 419.61 750.504C421.908 748.006 423.857 744.658 425.456 740.46C427.055 736.363 428.354 731.616 429.354 726.22C430.353 720.823 431.102 715.227 431.602 709.431C432.102 703.734 432.451 698.038 432.651 692.342C432.851 686.646 432.951 681.399 432.951 676.602C432.951 672.305 432.951 668.008 432.951 663.71C432.951 659.413 432.851 655.016 432.651 650.519ZM516.597 589.509C518.196 586.211 520.044 582.613 522.143 578.716C524.242 574.718 526.49 570.721 528.889 566.724C531.287 562.626 533.785 558.579 536.384 554.582C539.082 550.584 541.88 546.787 544.778 543.189C547.676 539.691 550.575 537.193 553.473 535.694C556.471 534.095 559.269 533.295 561.867 533.295C567.064 533.295 570.911 535.194 573.41 538.992C575.908 542.789 577.157 547.486 577.157 553.083C577.157 554.382 577.057 555.981 576.857 557.879C576.757 559.678 576.608 561.627 576.408 563.726C576.308 565.824 576.158 567.973 575.958 570.171C575.858 572.27 575.808 574.269 575.808 576.167C575.808 578.566 575.908 580.864 576.108 583.063C576.408 585.262 576.907 587.21 577.607 588.909C578.306 590.508 579.306 591.807 580.605 592.807C581.904 593.706 583.603 594.156 585.702 594.156C589.499 594.156 593.197 592.707 596.794 589.809C600.392 586.811 603.69 583.313 606.688 579.315C609.786 575.218 612.434 571.071 614.633 566.874C616.931 562.676 618.63 559.278 619.729 556.68C620.229 555.581 620.929 554.731 621.828 554.132C622.827 553.532 623.877 553.232 624.976 553.232C626.675 553.232 628.024 553.882 629.023 555.181C630.123 556.38 630.672 557.68 630.672 559.079C630.672 559.778 630.522 560.478 630.223 561.177C629.823 561.977 629.023 563.626 627.824 566.124C626.625 568.622 625.026 571.521 623.027 574.818C621.129 578.016 618.88 581.464 616.282 585.162C613.683 588.759 610.785 592.057 607.587 595.055C604.489 598.053 601.092 600.552 597.394 602.55C593.796 604.549 589.999 605.548 586.001 605.548C581.504 605.548 577.857 604.699 575.059 603C572.26 601.201 570.062 598.903 568.463 596.104C566.864 593.206 565.765 590.058 565.165 586.661C564.665 583.163 564.416 579.665 564.416 576.167C564.416 574.668 564.465 572.97 564.565 571.071C564.765 569.172 564.965 567.173 565.165 565.075C565.465 562.976 565.665 560.877 565.765 558.779C565.965 556.68 566.064 554.681 566.064 552.783C566.064 549.585 565.565 547.436 564.565 546.337C563.566 545.138 562.667 544.538 561.867 544.538C560.268 544.538 558.419 545.487 556.321 547.386C554.322 549.185 552.174 551.583 549.875 554.582C547.676 557.58 545.378 560.977 542.979 564.775C540.681 568.472 538.482 572.17 536.384 575.868C534.385 579.565 532.486 583.113 530.688 586.511C528.989 589.809 527.639 592.557 526.64 594.755C524.641 598.953 522.643 601.751 520.644 603.15C518.645 604.649 516.597 605.398 514.498 605.398C511.6 605.398 509.251 604.549 507.453 602.85C505.754 601.051 504.904 598.553 504.904 595.355C504.904 594.655 505.004 593.306 505.204 591.308C505.404 589.209 505.654 586.761 505.954 583.962C506.253 581.064 506.553 577.966 506.853 574.668C507.153 571.371 507.453 568.123 507.752 564.925C508.052 561.627 508.302 558.579 508.502 555.781C508.702 552.983 508.802 550.634 508.802 548.735C508.802 546.237 508.702 543.839 508.502 541.54C508.302 539.242 507.902 537.842 507.303 537.343C506.403 537.643 504.804 539.541 502.506 543.039C500.207 546.437 497.259 552.483 493.662 561.177C493.162 562.277 492.412 563.126 491.413 563.726C490.414 564.325 489.364 564.625 488.265 564.625C486.566 564.625 485.217 564.075 484.218 562.976C483.218 561.777 482.719 560.428 482.719 558.929C482.719 558.229 482.869 557.48 483.168 556.68C487.666 545.987 491.863 538.142 495.76 533.146C499.758 528.049 503.705 525.5 507.603 525.5C509.901 525.5 511.85 526.1 513.449 527.299C515.048 528.399 516.297 529.898 517.196 531.796C518.196 533.695 518.895 535.794 519.295 538.092C519.795 540.391 520.044 542.739 520.044 545.138C520.044 546.937 519.895 549.735 519.595 553.532C519.395 557.33 519.095 561.427 518.695 565.824C518.296 570.121 517.896 574.419 517.496 578.716C517.196 583.013 516.896 586.611 516.597 589.509ZM707.272 628.783C707.272 630.382 706.773 631.731 705.773 632.831C704.874 633.93 703.575 634.529 701.876 634.629H620.329C618.83 634.629 617.431 634.13 616.132 633.13C614.933 632.231 614.333 630.932 614.333 629.233C614.333 627.634 614.783 626.285 615.682 625.186C616.681 624.086 618.031 623.487 619.729 623.387H701.276C702.875 623.287 704.274 623.736 705.474 624.736C706.673 625.835 707.272 627.184 707.272 628.783ZM800.212 628.783C800.212 630.382 799.712 631.731 798.713 632.831C797.813 633.93 796.514 634.529 794.815 634.629H713.269C711.77 634.629 710.37 634.13 709.071 633.13C707.872 632.231 707.272 630.932 707.272 629.233C707.272 627.634 707.722 626.285 708.622 625.186C709.621 624.086 710.97 623.487 712.669 623.387H794.216C795.815 623.287 797.214 623.736 798.413 624.736C799.612 625.835 800.212 627.184 800.212 628.783ZM830.342 485.327C830.342 489.124 828.993 492.372 826.295 495.07C823.697 497.669 820.499 498.968 816.701 498.968C812.904 498.968 809.656 497.669 806.958 495.07C804.359 492.372 803.06 489.124 803.06 485.327C803.06 483.428 803.41 481.679 804.109 480.08C804.809 478.381 805.758 476.932 806.958 475.733C808.257 474.434 809.706 473.434 811.305 472.735C813.004 472.035 814.802 471.686 816.701 471.686C818.6 471.686 820.349 472.035 821.948 472.735C823.647 473.434 825.096 474.434 826.295 475.733C827.594 476.932 828.593 478.381 829.293 480.08C829.993 481.679 830.342 483.428 830.342 485.327ZM806.058 573.169C806.058 558.779 806.958 544.438 808.756 530.147C808.956 528.748 809.556 527.549 810.555 526.55C811.654 525.451 813.054 524.901 814.752 524.901C816.251 524.901 817.501 525.5 818.5 526.7C819.499 527.799 819.999 529.098 819.999 530.597C819.999 531.197 819.849 532.996 819.549 535.994C819.349 538.992 819.05 542.589 818.65 546.787C818.35 550.884 818.05 555.281 817.75 559.978C817.551 564.575 817.451 568.822 817.451 572.72C817.451 578.016 817.95 582.313 818.95 585.611C820.049 588.809 821.398 591.308 822.997 593.106C824.696 594.905 826.445 596.104 828.244 596.704C830.142 597.304 831.941 597.604 833.64 597.604C836.438 597.604 839.336 596.604 842.334 594.605C845.333 592.607 848.381 589.809 851.479 586.211C854.676 582.613 857.874 578.316 861.072 573.319C864.27 568.223 867.418 562.576 870.516 556.38C871.016 555.381 871.715 554.632 872.615 554.132C873.514 553.532 874.514 553.232 875.613 553.232C877.212 553.232 878.511 553.832 879.51 555.031C880.61 556.23 881.159 557.53 881.159 558.929C881.159 559.928 880.959 560.778 880.56 561.477C879.36 563.776 877.861 566.574 876.062 569.872C874.264 573.169 872.215 576.567 869.917 580.065C867.618 583.563 865.07 587.06 862.271 590.558C859.573 593.956 856.675 597.054 853.577 599.852C850.479 602.55 847.231 604.749 843.833 606.448C840.436 608.147 836.988 608.996 833.49 608.996C828.993 608.996 825.046 608.047 821.648 606.148C818.25 604.249 815.352 601.701 812.954 598.503C810.655 595.305 808.906 591.557 807.707 587.26C806.608 582.863 806.058 578.166 806.058 573.169ZM821.948 485.327C821.948 483.928 821.398 482.728 820.299 481.729C819.299 480.63 818.1 480.08 816.701 480.08C815.302 480.08 814.103 480.63 813.104 481.729C812.104 482.728 811.604 483.928 811.604 485.327C811.604 486.726 812.104 487.925 813.104 488.924C814.103 489.924 815.302 490.423 816.701 490.423C818.1 490.423 819.299 489.924 820.299 488.924C821.398 487.925 821.948 486.726 821.948 485.327ZM887.005 547.536C886.406 549.135 885.656 550.934 884.757 552.933C883.957 554.931 883.008 557.03 881.909 559.229C881.009 560.927 880.06 562.277 879.061 563.276C878.161 564.175 876.962 564.625 875.463 564.625C873.764 564.625 872.415 564.125 871.416 563.126C870.416 562.027 869.917 560.778 869.917 559.378C869.917 558.879 869.966 558.479 870.066 558.179C870.166 557.779 870.416 557.18 870.816 556.38C873.414 551.384 875.313 547.036 876.512 543.339C877.811 539.541 878.861 535.594 879.66 531.497C878.961 529.198 878.461 527.249 878.161 525.65C877.861 524.051 877.711 522.403 877.711 520.704C877.711 517.406 878.411 514.757 879.81 512.759C881.209 510.66 883.158 509.611 885.656 509.611C887.955 509.611 889.754 510.61 891.053 512.609C892.452 514.608 893.151 517.056 893.151 519.954C893.151 521.553 893.001 523.152 892.702 524.751C892.402 526.35 892.002 528.349 891.502 530.747C893.801 536.443 896.099 541.49 898.398 545.887C900.696 550.284 902.745 554.332 904.544 558.029C906.343 561.627 907.792 565.025 908.891 568.223C910.09 571.421 910.69 574.618 910.69 577.816C910.69 582.014 909.84 586.011 908.142 589.809C906.443 593.606 903.645 596.804 899.747 599.402C900.247 599.502 900.746 599.552 901.246 599.552C901.746 599.552 902.245 599.552 902.745 599.552C908.441 599.552 913.688 598.253 918.485 595.655C923.282 593.056 927.579 589.709 931.376 585.611C935.274 581.414 938.722 576.817 941.72 571.82C944.718 566.724 947.316 561.677 949.515 556.68C950.514 554.382 951.913 553.232 953.712 553.232C955.411 553.232 956.71 553.832 957.609 555.031C958.609 556.23 959.108 557.53 959.108 558.929C959.108 559.728 958.958 560.478 958.659 561.177C957.559 563.875 956.11 566.973 954.312 570.471C952.613 573.869 950.514 577.417 948.016 581.114C945.617 584.712 942.819 588.26 939.621 591.757C936.423 595.255 932.826 598.403 928.828 601.201C924.931 603.899 920.633 606.048 915.937 607.647C911.24 609.346 906.093 610.195 900.497 610.195C893.801 610.195 887.555 608.996 881.759 606.598C876.062 604.299 871.416 600.452 867.818 595.055C867.218 594.156 866.918 593.206 866.918 592.207C866.918 590.708 867.468 589.409 868.567 588.31C869.767 587.11 871.116 586.511 872.615 586.511C874.214 586.511 875.563 587.06 876.662 588.16C876.762 588.36 877.112 588.709 877.711 589.209C878.311 589.609 879.011 590.108 879.81 590.708C880.709 591.208 881.709 591.657 882.808 592.057C884.007 592.457 885.207 592.657 886.406 592.657C888.804 592.657 890.803 592.157 892.402 591.158C894.101 590.158 895.45 588.959 896.449 587.56C897.449 586.061 898.148 584.512 898.548 582.913C899.048 581.214 899.297 579.765 899.297 578.566C899.297 576.068 898.898 573.569 898.098 571.071C897.299 568.572 896.249 566.074 894.95 563.576C893.751 561.077 892.402 558.529 890.903 555.931C889.504 553.232 888.205 550.434 887.005 547.536ZM1069.74 452.948C1069.74 454.547 1069.19 455.846 1068.09 456.845C1066.99 457.745 1065.64 458.194 1064.04 458.194H988.04V459.843C988.04 465.939 987.59 472.435 986.69 479.331C985.791 486.226 984.542 493.122 982.943 500.017C981.444 506.813 979.695 513.458 977.696 519.954C975.798 526.45 973.799 532.446 971.7 537.942C969.701 543.439 967.703 548.236 965.704 552.333C963.705 556.33 961.907 559.328 960.308 561.327C961.607 565.924 963.156 570.221 964.955 574.219C966.753 578.116 968.752 581.564 970.951 584.562C973.249 587.46 975.698 589.759 978.296 591.458C980.894 593.156 983.692 594.006 986.69 594.006C990.188 594.006 993.636 592.557 997.034 589.659C1000.53 586.661 1003.73 583.163 1006.63 579.166C1009.63 575.068 1012.22 570.971 1014.42 566.874C1016.72 562.676 1018.37 559.328 1019.37 556.83C1020.37 554.432 1022.12 553.232 1024.62 553.232C1026.31 553.232 1027.66 553.832 1028.66 555.031C1029.76 556.23 1030.31 557.53 1030.31 558.929C1030.31 559.628 1030.16 560.328 1029.86 561.027C1029.56 561.727 1028.81 563.326 1027.61 565.824C1026.51 568.323 1025.02 571.221 1023.12 574.519C1021.32 577.816 1019.17 581.314 1016.67 585.012C1014.27 588.609 1011.52 591.907 1008.43 594.905C1005.43 597.903 1002.18 600.402 998.683 602.4C995.185 604.399 991.487 605.398 987.59 605.398C980.694 605.398 974.498 603.15 969.002 598.653C963.506 594.156 958.809 587.86 954.911 579.765C951.114 571.67 948.215 562.077 946.217 550.984C944.218 539.891 943.219 527.749 943.219 514.558C943.219 511.26 943.269 507.412 943.369 503.015C943.469 498.518 943.668 493.821 943.968 488.924C944.268 483.928 944.718 478.831 945.317 473.634C945.917 468.338 946.716 463.191 947.716 458.194H893.901C892.302 458.194 890.953 457.745 889.854 456.845C888.754 455.846 888.205 454.547 888.205 452.948C888.205 451.349 888.754 450.1 889.854 449.2C890.953 448.201 892.302 447.701 893.901 447.701H950.264C951.264 444.104 952.413 440.806 953.712 437.808C955.111 434.81 956.66 432.211 958.359 430.013C960.158 427.814 962.106 426.115 964.205 424.916C966.404 423.617 968.802 422.967 971.4 422.967C973.899 422.967 976.047 423.617 977.846 424.916C979.745 426.115 981.344 427.814 982.643 430.013C983.942 432.211 984.942 434.81 985.641 437.808C986.441 440.806 987.04 444.104 987.44 447.701H1064.04C1065.64 447.701 1066.99 448.201 1068.09 449.2C1069.19 450.1 1069.74 451.349 1069.74 452.948ZM956.86 546.337C959.858 539.741 962.556 532.646 964.955 525.051C967.453 517.356 969.552 509.611 971.25 501.816C973.049 494.021 974.398 486.376 975.298 478.881C976.297 471.386 976.797 464.49 976.797 458.194H959.108C957.709 464.39 956.56 472.085 955.661 481.279C954.861 490.373 954.461 501.466 954.461 514.558C954.461 521.853 954.661 527.999 955.061 532.996C955.461 537.892 956.06 542.34 956.86 546.337ZM970.801 434.21C969.901 434.21 968.602 435.209 966.903 437.208C965.204 439.107 963.506 442.604 961.807 447.701H976.197C975.698 443.504 974.948 440.206 973.949 437.808C973.049 435.409 972 434.21 970.801 434.21ZM959.258 557.13V557.28V557.13Z" fill="#011627"/>
<path d="M508.48 765.7C506.613 765.7 505.027 765.397 503.72 764.79C502.46 764.137 501.41 763.39 500.57 762.55C499.777 761.71 499.17 760.917 498.75 760.17C498.33 759.423 498.073 758.933 497.98 758.7H497.84L497.14 765H493.22V725.59H497.84L497.91 743.65H498.05C498.143 743.417 498.377 742.927 498.75 742.18C499.123 741.433 499.707 740.617 500.5 739.73C501.293 738.843 502.32 738.097 503.58 737.49C504.887 736.837 506.497 736.51 508.41 736.51C511.163 736.51 513.45 737.14 515.27 738.4C517.137 739.66 518.537 741.41 519.47 743.65C520.403 745.843 520.87 748.34 520.87 751.14C520.87 753.94 520.403 756.437 519.47 758.63C518.537 760.823 517.137 762.55 515.27 763.81C513.45 765.07 511.187 765.7 508.48 765.7ZM507.36 761.71C509.6 761.71 511.373 761.197 512.68 760.17C513.987 759.143 514.943 757.837 515.55 756.25C516.157 754.617 516.46 752.913 516.46 751.14C516.46 749.32 516.133 747.617 515.48 746.03C514.827 744.443 513.8 743.16 512.4 742.18C511 741.153 509.203 740.64 507.01 740.64C504.257 740.64 502.063 741.597 500.43 743.51C498.797 745.377 497.98 747.92 497.98 751.14C497.98 754.407 498.843 756.997 500.57 758.91C502.343 760.777 504.607 761.71 507.36 761.71ZM523.081 777.74V774.1H527.001C527.934 774.1 528.704 773.843 529.311 773.33C529.918 772.863 530.664 771.697 531.551 769.83L534.561 763.32L523.361 736.51H528.051L536.801 758.56L546.111 736.51H550.871L535.611 770.46C534.678 772.56 533.838 774.123 533.091 775.15C532.391 776.223 531.598 776.923 530.711 777.25C529.824 777.577 528.704 777.74 527.351 777.74H523.081ZM586.958 765.7C585.138 765.7 583.575 765.397 582.268 764.79C581.008 764.137 579.982 763.39 579.188 762.55C578.395 761.71 577.788 760.917 577.368 760.17C576.995 759.423 576.762 758.933 576.668 758.7H576.528V776.76H571.908V736.51H575.758L576.528 743.65H576.668C576.762 743.417 576.995 742.927 577.368 742.18C577.742 741.433 578.302 740.617 579.048 739.73C579.842 738.843 580.868 738.097 582.128 737.49C583.435 736.837 585.045 736.51 586.958 736.51C589.712 736.51 591.998 737.14 593.818 738.4C595.685 739.66 597.085 741.41 598.018 743.65C598.998 745.843 599.488 748.363 599.488 751.21C599.488 755.457 598.415 758.933 596.268 761.64C594.122 764.347 591.018 765.7 586.958 765.7ZM586.048 761.71C588.242 761.71 589.992 761.197 591.298 760.17C592.652 759.143 593.608 757.837 594.168 756.25C594.775 754.617 595.078 752.913 595.078 751.14C595.078 749.32 594.752 747.617 594.098 746.03C593.445 744.443 592.418 743.16 591.018 742.18C589.665 741.153 587.868 740.64 585.628 740.64C582.922 740.64 580.752 741.597 579.118 743.51C577.485 745.377 576.668 747.92 576.668 751.14C576.668 754.407 577.532 756.997 579.258 758.91C580.985 760.777 583.248 761.71 586.048 761.71ZM614.301 765.63C611.688 765.63 609.541 765 607.861 763.74C606.181 762.433 604.921 760.683 604.081 758.49C603.288 756.297 602.891 753.8 602.891 751C602.891 746.707 603.824 743.183 605.691 740.43C607.604 737.63 610.474 736.23 614.301 736.23C616.261 736.23 617.894 736.58 619.201 737.28C620.554 737.933 621.628 738.75 622.421 739.73C623.261 740.71 623.868 741.643 624.241 742.53H624.311V736.51H628.931V765H625.081L624.381 759.47H624.241C623.821 760.403 623.214 761.36 622.421 762.34C621.628 763.273 620.554 764.067 619.201 764.72C617.894 765.327 616.261 765.63 614.301 765.63ZM616.051 761.64C618.944 761.64 621.021 760.683 622.281 758.77C623.588 756.857 624.241 754.29 624.241 751.07C624.241 747.617 623.564 744.98 622.211 743.16C620.904 741.34 618.851 740.43 616.051 740.43C612.971 740.43 610.754 741.457 609.401 743.51C608.094 745.517 607.441 748.013 607.441 751C607.441 754.127 608.118 756.693 609.471 758.7C610.824 760.66 613.018 761.64 616.051 761.64ZM634.864 765V736.51H638.924L639.414 744C639.694 742.74 640.254 741.527 641.094 740.36C641.934 739.193 643.077 738.26 644.524 737.56C646.017 736.813 647.861 736.463 650.054 736.51H651.384V741.48H649.984C646.997 741.48 644.734 741.923 643.194 742.81C641.701 743.65 640.674 744.84 640.114 746.38C639.601 747.92 639.344 749.693 639.344 751.7V765H634.864ZM655.287 765V736.51H659.137L659.417 743.58H659.557C659.65 743.253 659.86 742.717 660.187 741.97C660.514 741.177 661.027 740.36 661.727 739.52C662.427 738.68 663.337 737.98 664.457 737.42C665.577 736.813 667 736.51 668.727 736.51C671.34 736.51 673.254 737.233 674.467 738.68C675.727 740.127 676.567 741.76 676.987 743.58H677.127C677.267 743.253 677.524 742.717 677.897 741.97C678.27 741.177 678.83 740.36 679.577 739.52C680.324 738.68 681.28 737.98 682.447 737.42C683.66 736.813 685.13 736.51 686.857 736.51C688.677 736.51 690.17 736.883 691.337 737.63C692.504 738.33 693.39 739.287 693.997 740.5C694.65 741.667 695.117 742.903 695.397 744.21C695.677 745.517 695.84 746.777 695.887 747.99C695.934 749.203 695.957 750.183 695.957 750.93V765H692.037V750.93C692.037 750.183 691.99 749.227 691.897 748.06C691.804 746.893 691.57 745.75 691.197 744.63C690.824 743.463 690.17 742.507 689.237 741.76C688.35 740.967 687.067 740.57 685.387 740.57C683.52 740.57 682.027 741.083 680.907 742.11C679.787 743.137 678.97 744.49 678.457 746.17C677.944 747.803 677.687 749.577 677.687 751.49V765H673.767V750.93C673.767 750.183 673.72 749.227 673.627 748.06C673.534 746.893 673.3 745.75 672.927 744.63C672.554 743.463 671.9 742.507 670.967 741.76C670.08 740.967 668.797 740.57 667.117 740.57C665.25 740.57 663.757 741.083 662.637 742.11C661.517 743.137 660.7 744.49 660.187 746.17C659.674 747.803 659.417 749.577 659.417 751.49V765H655.287ZM705.068 733.43C704.041 733.43 703.341 733.173 702.968 732.66C702.641 732.1 702.478 731.4 702.478 730.56C702.478 729.86 702.641 729.253 702.968 728.74C703.341 728.18 704.041 727.9 705.068 727.9C706.095 727.9 706.771 728.18 707.098 728.74C707.471 729.253 707.658 729.86 707.658 730.56C707.658 731.4 707.471 732.1 707.098 732.66C706.771 733.173 706.095 733.43 705.068 733.43ZM702.828 765V736.51H707.308V765H702.828ZM713.871 765V736.51H717.721L718.491 743.58H718.631C718.678 743.347 718.888 742.857 719.261 742.11C719.634 741.363 720.194 740.57 720.941 739.73C721.734 738.843 722.761 738.097 724.021 737.49C725.281 736.837 726.891 736.51 728.851 736.51C731.324 736.51 733.261 736.953 734.661 737.84C736.108 738.727 737.181 739.917 737.881 741.41C738.581 742.857 739.024 744.42 739.211 746.1C739.398 747.78 739.491 749.39 739.491 750.93V765H735.151V750.93C735.151 747.85 734.614 745.353 733.541 743.44C732.514 741.527 730.461 740.57 727.381 740.57C725.281 740.57 723.554 741.083 722.201 742.11C720.894 743.09 719.938 744.42 719.331 746.1C718.771 747.733 718.491 749.53 718.491 751.49V765H713.871ZM758.061 765.7C755.308 765.7 752.998 765.07 751.131 763.81C749.311 762.55 747.935 760.823 747.001 758.63C746.115 756.39 745.671 753.893 745.671 751.14C745.671 746.893 746.721 743.393 748.821 740.64C750.921 737.887 754.025 736.51 758.131 736.51C760.045 736.51 761.631 736.837 762.891 737.49C764.198 738.097 765.248 738.843 766.041 739.73C766.835 740.617 767.418 741.433 767.791 742.18C768.165 742.927 768.398 743.417 768.491 743.65H768.631L768.701 725.59H773.321V765H769.401L768.701 758.7H768.561C768.468 758.933 768.211 759.423 767.791 760.17C767.371 760.917 766.741 761.71 765.901 762.55C765.108 763.39 764.058 764.137 762.751 764.79C761.491 765.397 759.928 765.7 758.061 765.7ZM759.181 761.71C761.935 761.71 764.175 760.777 765.901 758.91C767.675 756.997 768.561 754.407 768.561 751.14C768.561 747.92 767.745 745.377 766.111 743.51C764.478 741.597 762.285 740.64 759.531 740.64C757.338 740.64 755.541 741.153 754.141 742.18C752.741 743.16 751.715 744.443 751.061 746.03C750.408 747.617 750.081 749.32 750.081 751.14C750.081 752.913 750.385 754.617 750.991 756.25C751.598 757.837 752.555 759.143 753.861 760.17C755.168 761.197 756.941 761.71 759.181 761.71ZM792.173 765.7C789.046 765.7 786.456 765 784.403 763.6C782.396 762.153 780.903 760.31 779.923 758.07C778.989 755.783 778.523 753.427 778.523 751C778.523 748.34 779.036 745.913 780.063 743.72C781.136 741.48 782.676 739.707 784.683 738.4C786.736 737.093 789.186 736.44 792.033 736.44C795.673 736.44 798.706 737.63 801.133 740.01C803.559 742.343 804.866 745.493 805.053 749.46C805.099 749.647 805.123 749.927 805.123 750.3C805.123 750.627 805.123 750.93 805.123 751.21H782.863C782.863 754.523 783.656 757.137 785.243 759.05C786.876 760.917 789.163 761.85 792.103 761.85C794.296 761.85 796.163 761.29 797.703 760.17C799.289 759.05 800.269 757.533 800.643 755.62H805.053C804.586 758.513 803.209 760.917 800.923 762.83C798.636 764.743 795.719 765.7 792.173 765.7ZM783.003 748.76H800.503C800.503 747.78 800.223 746.613 799.663 745.26C799.149 743.907 798.263 742.74 797.003 741.76C795.789 740.733 794.109 740.22 791.963 740.22C790.003 740.22 788.393 740.64 787.133 741.48C785.873 742.32 784.916 743.393 784.263 744.7C783.609 746.007 783.189 747.36 783.003 748.76ZM811.505 765V736.51H815.565L816.055 744C816.335 742.74 816.895 741.527 817.735 740.36C818.575 739.193 819.718 738.26 821.165 737.56C822.658 736.813 824.501 736.463 826.695 736.51H828.025V741.48H826.625C823.638 741.48 821.375 741.923 819.835 742.81C818.341 743.65 817.315 744.84 816.755 746.38C816.241 747.92 815.985 749.693 815.985 751.7V765H811.505Z" fill="#AD343E"/>
</svg>
